<svg xmlns="http://www.w3.org/2000/svg" viewBox="0 0 88.99 75.27"><defs><style>.a{fill:#c3a180;}</style></defs><title>Swimming-pool</title><path class="a" d="M221.15,444.14l-20.5,0h-5.91v30.53H192v-5.43H166.92v5.43h-2.73V444.17c-0.32,0-.54-0.06-0.76-0.06H132.68l-0.52,0v-2.78h18.1c0-.4,0-0.71,0-1,0-3.3,0-6.6,0-9.9a8.62,8.62,0,0,1,5.87-8.1c0.52-.17,1-0.3,1.57-0.44h1.74a1.48,1.48,0,0,0,.31.15,8.54,8.54,0,0,1,7.14,8.83q0,4.78,0,9.55v0.91h11.18c0-.37,0-0.69,0-1,0-3.3,0-6.6,0-9.9a8.58,8.58,0,0,1,6.28-8.21l1.16-.33h1.74a2.49,2.49,0,0,0,.4.16,8.54,8.54,0,0,1,7,8.64q0,4.86,0,9.73v1h5.43l21,0v2.78Zm-29.21-2.79c0-.32,0-0.57,0-0.83,0-3.42,0-6.83,0-10.25a5.59,5.59,0,1,0-11.17,0q0,5.08,0,10.16c0,0.28,0,.56,0,0.87h11.1Zm-27.86,0a1.45,1.45,0,0,0,.08-0.3c0-3.76.06-7.53,0-11.29a5.27,5.27,0,0,0-5.49-5.12c-3.13,0-5.56,2.07-5.63,5.06-0.09,3.82,0,7.64,0,11.46a0.55,0.55,0,0,0,.1.18h11Zm2.85,8.33h25v-5.5h-25v5.5Zm0,8.34h25v-5.49h-25V458Zm25,2.84h-25v5.49h25v-5.49Z" transform="translate(-132.16 -421.89)"/><path class="a" d="M221.15,485.05a8.81,8.81,0,0,1-6.94-3.89c-1.78,2.37-4,3.86-7,3.85a8.43,8.43,0,0,1-6.92-3.85,8.46,8.46,0,0,1-6.92,3.85c-2.94,0-5.17-1.43-7-3.84a8.52,8.52,0,0,1-7,3.84c-2.94,0-5.16-1.46-7-3.84-1.77,2.35-4,3.85-7,3.84a8.48,8.48,0,0,1-6.93-3.84,8.46,8.46,0,0,1-6.91,3.84c-2.94,0-5.18-1.43-7-3.84a8.76,8.76,0,0,1-6.89,3.85v-2.68a5.84,5.84,0,0,0,3.94-1.59,5.77,5.77,0,0,0,1.61-4H146a5.67,5.67,0,0,0,2.17,4.43,5.89,5.89,0,0,0,4,1.07c2.85-.18,4.75-2.2,5.08-5.48h2.61c0.57,3.69,2.48,5.51,5.74,5.49s5.07-1.9,5.58-5.51h2.61a5.68,5.68,0,0,0,2.11,4.38,5.86,5.86,0,0,0,4,1.13c2.89-.14,4.82-2.17,5.16-5.49h2.63a5.65,5.65,0,0,0,2.36,4.55,6,6,0,0,0,3.89.94c2.82-.2,4.55-2.07,5.06-5.5h2.61a5.68,5.68,0,0,0,2.11,4.38,5.86,5.86,0,0,0,4,1.12c2.89-.15,4.81-2.16,5.16-5.49h2.63a5.66,5.66,0,0,0,2.23,4.45,5.26,5.26,0,0,0,3.42,1v2.78Z" transform="translate(-132.16 -421.89)"/><path class="a" d="M132.16,494.39c3.15,0.08,5.12-1.82,5.66-5.49h2.61a5.63,5.63,0,0,0,2.1,4.39,5.88,5.88,0,0,0,4.09,1.12c2.85-.18,4.73-2.19,5.06-5.49h2.63a5.64,5.64,0,0,0,2.29,4.5,6,6,0,0,0,4,1c2.81-.2,4.53-2.06,5.05-5.5h2.61a5.65,5.65,0,0,0,2,4.33,5.86,5.86,0,0,0,4.08,1.17c2.89-.15,4.81-2.16,5.15-5.49h2.63a5.64,5.64,0,0,0,2.29,4.5,6,6,0,0,0,4,1c2.81-.2,4.52-2,5.05-5.5h2.61a5.64,5.64,0,0,0,2,4.34,5.86,5.86,0,0,0,4.08,1.17c2.89-.15,4.8-2.16,5.15-5.49h2.63c0.27,3.39,2.13,5.26,5.58,5.56v2.66a8.69,8.69,0,0,1-6.87-3.85c-1.79,2.36-4,3.86-7,3.84a8.39,8.39,0,0,1-6.87-3.79c-4.5,5.67-10.73,4.38-14,0a8.21,8.21,0,0,1-13.89,0c-1.79,2.35-4,3.86-7,3.84a8.39,8.39,0,0,1-6.87-3.79c-4.55,5.73-10.8,4.32-14,0a8.88,8.88,0,0,1-6.94,3.86v-2.78Z" transform="translate(-132.16 -421.89)"/><path class="a" d="M132.16,449.7l20.5,0h8.62v2.73H132.86l-0.69,0V449.7Z" transform="translate(-132.16 -421.89)"/><path class="a" d="M221.15,452.48l-22,0h-1.59v-2.73h22.87l0.69,0v2.78Z" transform="translate(-132.16 -421.89)"/></svg>